<svg width="697" height="221" viewBox="0 0 697 221" fill="none" xmlns="http://www.w3.org/2000/svg">
<path d="M149 200.25C149 173.986 154.16 147.978 164.186 123.713C174.212 99.4482 188.907 77.4004 207.432 58.8286C225.957 40.2569 247.95 25.525 272.155 15.4741C296.359 5.42315 322.301 0.250001 348.5 0.25C374.699 0.249999 400.641 5.42315 424.845 15.4741C449.05 25.525 471.042 40.2569 489.568 58.8286C508.093 77.4003 522.788 99.4482 532.814 123.713C542.84 147.978 548 173.986 548 200.25" stroke="#F2E2C1" stroke-width="0.5"/>
<path d="M177 200.25C177 177.663 181.436 155.296 190.055 134.428C198.673 113.56 211.306 94.5993 227.231 78.6276C243.156 62.656 262.062 49.9865 282.87 41.3427C303.677 32.6989 325.978 28.25 348.5 28.25C371.022 28.25 393.323 32.6989 414.13 41.3427C434.938 49.9865 453.844 62.656 469.769 78.6276C485.694 94.5993 498.327 113.56 506.945 134.428C515.564 155.296 520 177.663 520 200.25" stroke="#F2E2C1" stroke-width="0.5"/>
<path d="M163 200.25C163 175.824 167.798 151.637 177.12 129.071C186.443 106.504 200.106 85.9998 217.332 68.7281C234.557 51.4564 255.006 37.7558 277.512 28.4084C300.018 19.061 324.14 14.25 348.5 14.25C372.86 14.25 396.982 19.061 419.488 28.4084C441.994 37.7558 462.443 51.4564 479.668 68.7281C496.894 85.9998 510.557 106.504 519.88 129.071C529.202 151.637 534 175.824 534 200.25" stroke="#F2E2C1" stroke-width="0.5"/>
<path d="M0 199.25L697 199.25" stroke="#F7DBAD" stroke-width="0.5"/>
<path d="M200 210.25H496" stroke="#F7DBAD" stroke-width="0.5"/>
<path d="M249 220.25H448" stroke="#F7DBAD" stroke-width="0.5"/>
</svg>
